<?xml version="1.0" encoding="UTF-8" standalone="no"?>
<svg width="21px" height="21px" viewBox="0 0 21 21" version="1.1" xmlns="http://www.w3.org/2000/svg" xmlns:xlink="http://www.w3.org/1999/xlink">
    <!-- Generator: Sketch 3.7.2 (28276) - http://www.bohemiancoding.com/sketch -->
    <title>status online lg</title>
    <desc>Created with Sketch.</desc>
    <defs></defs>
    <g id="Symbols" stroke="none" stroke-width="1" fill="none" fill-rule="evenodd">
        <g id="status-online-lg">
            <g id="Page-1">
                <path d="M0.583722222,10.3833333 C0.583722222,15.7939444 4.96416667,20.1833333 10.3837222,20.1833333 C15.7943333,20.1833333 20.1837222,15.8025 20.1837222,10.3833333 C20.1837222,4.97272222 15.8028889,0.583333333 10.3837222,0.583333333 C4.97272222,0.583333333 0.583722222,4.96416667 0.583722222,10.3833333 L0.583722222,10.3833333 Z" id="Fill-1" fill="#FFFFFF"></path>
                <path d="M10.5178889,0.000777777778 C11.0028333,0.0101111111 11.4858333,0.0462777778 11.9657222,0.119777778 C12.9363889,0.267944444 13.8848889,0.554944444 14.7746667,0.970277778 C15.7947222,1.44705556 16.7354444,2.09066667 17.5501667,2.86805556 C18.3633333,3.64388889 19.0501111,4.55116667 19.5739444,5.54516667 C20.0491667,6.44661111 20.3898333,7.41805556 20.5815556,8.41905556 C20.7966111,9.54294444 20.8246111,10.703 20.6663333,11.8362222 C20.5181667,12.8936111 20.2058889,13.9265 19.7423333,14.8882222 C19.1994444,16.0144444 18.4516111,17.0395556 17.5466667,17.9021111 C16.6094444,18.795 15.5061667,19.5109444 14.3076111,20.0001667 C13.0647222,20.5072778 11.7257778,20.7670556 10.3837222,20.7666667 C9.04011111,20.7662778 7.69961111,20.5068889 6.45555556,19.999 C5.257,19.509 4.15372222,18.7922778 3.21688889,17.8986111 C2.31233333,17.0360556 1.56527778,16.0105556 1.02316667,14.8843333 C0.560388889,13.923 0.2485,12.8908889 0.100722222,11.8342778 C-0.0575555556,10.7006667 -0.0291666667,9.54061111 0.185888889,8.41672222 C0.378,7.41494444 0.719055556,6.44311111 1.19466667,5.54127778 C1.71927778,4.54727778 2.40644444,3.64 3.22038889,2.86455556 C4.0355,2.08794444 4.97622222,1.44472222 5.99627778,0.969111111 C6.88566667,0.554166667 7.83338889,0.267555556 8.80366667,0.119388889 C9.28277778,0.0462777778 9.765,0.0101111111 10.2495556,0.000777777778 C10.3841111,2.17111485e-15 10.3837222,2.17111485e-15 10.5178889,0.000777777778 L10.5178889,0.000777777778 Z M10.2643333,1.16744444 C9.83383333,1.17561111 9.40527778,1.20788889 8.97944444,1.27283333 C8.11922222,1.40388889 7.27844444,1.65822222 6.48977778,2.02611111 C4.67483333,2.87272222 3.16127778,4.31511111 2.22677778,6.08572222 C1.80444444,6.88566667 1.50188889,7.74783333 1.33194444,8.63605556 C1.14061111,9.63472222 1.11533333,10.6656667 1.25611111,11.6728889 C1.38716667,12.6097222 1.66405556,13.5255556 2.07433333,14.3783889 C2.55577778,15.3782222 3.21922222,16.2886111 4.02227778,17.0543333 C4.85372222,17.8476667 5.83294444,18.4838889 6.89694444,18.9186667 C8.00138889,19.3697778 9.191,19.6 10.3837222,19.6 C11.6126111,19.6 12.838,19.3553889 13.9704444,18.8766667 C15.0282222,18.4298333 15.9996667,17.7827222 16.8213889,16.9804444 C17.6162778,16.2053889 18.2696111,15.2868333 18.7393889,14.2807778 C19.1407222,13.4213333 19.4067222,12.5000556 19.5261111,11.5593333 C19.6591111,10.5132222 19.6136111,9.44416667 19.3896111,8.41322222 C19.1978889,7.53238889 18.8755,6.68072222 18.4356667,5.89361111 C17.4961111,4.21088889 16.0272778,2.84316667 14.2807778,2.02766667 C13.4917222,1.659 12.6505556,1.40427778 11.7895556,1.27283333 C11.3633333,1.20788889 10.934,1.17561111 10.5031111,1.16744444 C10.3837222,1.16666667 10.3841111,1.16666667 10.2643333,1.16744444 L10.2643333,1.16744444 Z" id="Fill-2" fill="#5EAC7C"></path>
                <path d="M9.04438889,12.2690556 L14.4651111,6.84794444 C14.7641667,6.54927778 15.2471667,6.54733333 15.5485556,6.84872222 C15.8476111,7.14816667 15.8483889,7.63311111 15.547,7.9345 L11.2062222,12.2752778 L9.6145,13.867 C9.60555556,13.8767222 9.59661111,13.8864444 9.58688889,13.8957778 C9.53555556,13.9471111 9.47838889,13.9898889 9.41733333,14.0233333 C9.12644444,14.1862778 8.75194444,14.1446667 8.50227778,13.895 L8.50188889,13.8946111 L8.5015,13.8942222 L5.79405556,11.1867778 C5.49344444,10.8865556 5.49072222,10.4023889 5.79211111,10.101 C6.09155556,9.80155556 6.58311111,9.80777778 6.87788889,10.1025556 L9.04438889,12.2690556 Z" id="Fill-3" fill="#35BA70"></path>
            </g>
        </g>
    </g>
</svg>