<?xml version="1.0" standalone="no"?>
<!DOCTYPE svg PUBLIC "-//W3C//DTD SVG 1.1//EN" "http://www.w3.org/Graphics/SVG/1.1/DTD/svg11.dtd">
<svg xmlns="http://www.w3.org/2000/svg">
<metadata>Copyright (C) 2016 by original authors @ fontello.com</metadata>
<defs>
<font id="icons" horiz-adv-x="1000" >
<font-face font-family="icons" font-weight="400" font-stretch="normal" units-per-em="1000" ascent="850" descent="-150" />
<missing-glyph horiz-adv-x="1000" />
<glyph glyph-name="menu-toggle" unicode="&#xe800;" d="M226 602l988 0 0 92-988 0 0-92 0 0z m0-296l988 0 0 91-988 0 0-91 0 0z m0-297l988 0 0 92-988 0 0-92 0 0z" horiz-adv-x="1467" />

<glyph glyph-name="history" unicode="&#xe801;" d="M208 633c53 46 116 79 184 94 225 51 448-86 498-307 51-221-89-441-314-492-222-49-446 88-497 309-19 78-13 158 18 233l-42 17c-34-84-41-174-20-261 57-245 304-397 551-342 249 56 405 300 349 546-56 246-304 397-553 341-76-17-145-53-204-104l30-34 0 0z m143-4l-170 29 18-26 32 168-45 9-32-169-4-22 23-4 171-30 7 45 0 0z m346-504c-30 25-53 44-107 88-54 43-78 63-107 87l8-18 0 347-45 0 0-347 0-10 8-7c29-24 53-44 107-87 54-44 78-63 107-88l29 35 0 0z" horiz-adv-x="955" />

<glyph glyph-name="printer" unicode="&#xe802;" d="M844 117l0-227-844 0 0 746c3 4 5 7 8 11 6 9 13 17 20 25 20 22 42 41 67 58 30 21 63 38 97 52 13 5 26 10 39 15 17 6 34 11 52 16 23 7 46 13 70 17 20 5 41 8 62 11 17 3 35 5 53 6l35 3 3-2 0-142 336 0 0-185 2 0 0-178 279 105c4-3 9-6 13-9l0-179-292-143z m-775-159l706 0 0 150-706 0 0-150z m0 219l706 0 0 271-706 0 0-271z m775 93l0-76 224 109 0 51-224-84z m-261-39l137 0 0 52-137 0 0-52z m0 94l137 0 0 53-137 0 0-53z m-148 450c-45-6-90-15-133-28-36-10-71-22-104-38-23-11-46-23-66-37-18-12-34-26-48-41-5-5-9-9-13-14l-1-2-1-1 0-93 705 0 0 116-337 0 0 138c-1 0-1 0-2 0l0 0z" horiz-adv-x="1136" />

<glyph glyph-name="user" unicode="&#xe803;" d="M377 614c0 99 58 176 123 176 67 0 124-77 124-176 0-98-58-176-124-176-66 0-123 77-123 176l-60 0c0-129 79-236 183-236 103 0 184 108 184 236 0 129-80 236-184 236-103 0-183-108-183-236l60 0z m-310-666l30-30c0 188 180 342 404 342 211 0 399-172 405-343l30 31-270 2 0-60 270-1 31-1-1 32c-7 203-223 400-465 400-255 0-464-179-464-402l0-30 30 1 263 1 0 60-263-2z" horiz-adv-x="1000" />

<glyph glyph-name="dashboard" unicode="&#xe804;" d="M66 351c0 240 194 434 434 434 240 0 434-195 434-434 0-240-194-434-434-434-240 0-434 195-434 434l-66 0c0-275 224-499 500-499 276 0 500 223 500 499 0 275-224 499-500 499-276 0-500-223-500-499l66 0z m134-36c-5 180 127 329 293 333 166 5 306-135 312-314l0-9 65 0 0 10c-7 216-175 385-379 379-204-6-363-185-357-401l66 2z m250 35l-151 162 48 45 147-158c8 3 16 4 24 4 40 0 71-31 71-70 0-40-31-71-71-71-39 0-70 31-70 71 0 6 0 12 2 17l0 0z" horiz-adv-x="1000" />

<glyph glyph-name="drivers" unicode="&#xe805;" d="M69 348c0 233 188 421 421 421 233 0 421-188 421-421 0-232-189-421-421-421-232 0-421 189-421 421l-45 0c0-257 209-466 466-466 257 0 466 208 466 466 0 258-208 466-466 466-258 0-466-208-466-466l45 0 0 0z m374 47c26 26 68 26 94 0 27-26 27-68 0-94-26-27-69-27-95 0-27 26-27 68 0 94m-47 49c52 52 138 52 191 0 52-52 52-138 0-191-52-52-137-52-191 0-53 52-53 138 0 191l-32 32c-71-71-71-185 0-255 71-70 185-70 255 0 70 71 70 185 0 255-71 70-185 70-255 0l32-32 0 0z m-216-299l139 68 38-37-69-139c-30-5-114 79-109 109l1-1z m510 512l-68-140 37-38 140 68c5 30-80 115-110 110l1 0z" horiz-adv-x="1000" />

<glyph glyph-name="cog" unicode="&#xe806;" d="M470 827c-8-1-15-2-28-3l-17-2-3-17-22-123 17 18c-41-10-77-24-109-44l26-1-101 73-14 10-13-11c-30-23-56-49-78-76l-10-13 9-14 71-103 0 25c-23-34-40-74-49-115l-1-5 0-2 23 0-4 23-122-19-17-3-2-17c-2-20-3-39-3-59 0-11 0-17 0-23 0-9 1-17 2-26l3-16 16-3 122-22-19 18c10-44 27-86 51-125l1 25-72-99-10-14 10-14c21-26 46-51 74-73l14-10 13 9 103 71-25-1c40-25 83-42 128-50l-18 19 19-122 2-18 18-1c7-1 14-1 22-1 6 0 11 0 21 0 21 0 41 1 61 3l17 2 3 17 23 124-17-18c44 11 85 30 121 56l-26 0 99-73 15-10 13 12c28 24 52 50 73 77l10 13-9 14-72 104 1-25c21 36 36 76 43 119l-19-19 122 19 18 3 1 17c1 12 1 21 1 40 0 23-2 46-6 70l-2 16-16 3-124 22 18-16c-11 38-27 73-49 106l-1-26 73 99 10 15-11 13c-24 29-51 56-79 78l-13 11-14-10-105-71 24 1c-33 19-68 33-105 41l18-18-19 122-3 17-17 2c-19 2-38 3-57 3l-14 0-7 0-2 0 0-23 10 21-2 1-6 3-7-1 0 0z m5-45l-2 23-11-21 3-1 5-2 5 0 2 0 7 0 14 0c17 0 34-1 51-3l3 22-22-3 19-122 2-16 15-3c32-7 63-19 92-36l12-8 12 8 105 72-27 1c26-21 51-45 73-72l-1 28-72-99-10-13 9-13c19-29 34-60 43-93l4-14 14-3 124-22 4 22-23-3c4-22 6-43 6-63 0-17 0-25-1-36l22-2-3 23-122-19-16-3-3-16c-6-37-19-72-37-103l-8-12 8-12 72-104 1 26c-19-24-41-48-66-70l28 1-100 73-13 10-14-10c-31-23-66-40-104-49l-15-3-2-15-24-124 23-4-3 22c-18-2-37-3-56-3-10 0-14 0-20 0-7 0-13 1-19 1l-2-22 22 3-19 122-2 16-16 3c-39 7-77 22-112 44l-12 8-12-9-103-70 26-1c-25 20-48 42-66 65l0-27 73 99 9 13-8 13c-22 35-37 72-45 110l-3 15-15 3-122 22-4-22 22 3c-1 6-1 13-2 20 0 6 0 11 0 22 0 18 1 35 3 54l-22 2 3-22 122 19 19 3 0 19 0 2-22 0 22-6c8 37 23 71 43 102l8 12-9 13-70 103-1-27c19 24 43 47 70 69l-27-1 100-73 13-9 13 9c27 17 58 29 95 38l14 4 3 14 22 123-22 4 3-22c13 1 19 2 27 3l0 0z m14-312l7 0c64 0 116-53 116-116 0-64-51-115-116-115-63 0-115 51-115 115 0 61 49 112 110 116l-2 0z m-1 45c-85-5-152-76-152-161 0-89 72-160 160-160 90 0 162 71 162 160 0 89-73 161-162 161l-7 0-1 0z" horiz-adv-x="1000" />

<glyph glyph-name="diagnostics" unicode="&#xe807;" d="M1174 344l-319 2-12 0-6-10-204-372 37-3-270 784-17 50-21-49-209-493 16 12c-17-2-53-3-102-4-21-1-43-1-67-1-16 0-27 0-44 0l0-41c17 0 29 0 45 1 23 0 45 0 67 0 50 1 86 2 106 5l11 1 5 11 209 493-37 2 270-784 15-43 22 40 204 371-18-10 319-2 0 40 0 0z" horiz-adv-x="1000" />

<glyph glyph-name="overflow-menu" unicode="&#xe808;" d="M511 579c46 0 83 40 83 88 0 49-37 88-83 88-45 0-82-39-82-88 0-48 37-88 82-88z m0-317c46 0 83 40 83 88 0 48-37 88-83 88-45 0-82-40-82-88 0-48 37-88 82-88z m0-317c46 0 83 39 83 88 0 48-37 88-83 88-45 0-82-40-82-88 0-49 37-88 82-88z" horiz-adv-x="1000" />

<glyph glyph-name="overflow-menu-2" unicode="&#xe809;" d="M741 350c0-46 39-83 87-83 49 0 88 37 88 83 0 46-39 83-88 83-48 0-87-37-87-83z m-317 0c0-46 39-83 87-83 49 0 88 37 88 83 0 46-39 83-88 83-48 0-87-37-87-83z m-318 0c0-46 40-83 88-83 49 0 88 37 88 83 0 46-39 83-88 83-48 0-88-37-88-83z" horiz-adv-x="1000" />

<glyph glyph-name="sort-down" unicode="&#xe80a;" d="M544 99l82 95 23 26 71-61c-62-72-124-143-186-215-2-2-2-2-4-4-3-3-7-5-11-7-13-7-30-7-43 1-3 1-6 3-9 6-2 1-2 2-4 4-48 53-96 107-144 161l-47 53 70 63c16-18 32-36 48-53l60-68 0 652 94 0 0-653z" horiz-adv-x="1000" />

<glyph glyph-name="sort-up" unicode="&#xe80b;" d="M544 581l82-95 23-27 71 62c-62 71-124 143-186 214-2 2-2 3-4 4-3 3-7 6-11 8-13 7-30 6-43-1-3-2-6-4-9-6-2-2-2-2-4-4-48-54-96-108-144-161l-47-54 70-62c16 17 32 35 48 53l60 67 0-651 94 0 0 653z" horiz-adv-x="1000" />

<glyph glyph-name="add" unicode="&#xe80c;" d="M96 347c0 229 185 414 413 414 228 0 414-185 414-414 0-229-186-415-414-415-228 0-413 186-413 415l-62 0c0-263 213-477 475-477 263 0 475 214 475 477 0 263-212 476-475 476-262 0-475-213-475-476l62 0 0 0z m136-32l556 0 0 61-556 0 0-61 0 0z m248 309l0-556 61 0 0 556-61 0 0 0z" horiz-adv-x="1000" />

<glyph glyph-name="refresh" unicode="&#xe80d;" d="M846 710c-61 52-132 90-211 107-258 58-514-99-572-354-59-254 103-507 360-565 256-58 513 100 572 354 22 90 15 184-21 271l-56-23c31-75 37-156 18-234-51-221-276-359-499-309-225 51-366 271-315 493 50 222 274 359 500 308 69-15 131-48 184-94l40 46 0 0z m-172-98l174 30 31 6-6 30-33 172-59-11 33-172 24 35-174-30 10-60 0 0z" horiz-adv-x="1053" />

<glyph glyph-name="search" unicode="&#xe80e;" d="M994-23c4-4 6-9 6-15 0-6-2-11-6-15l-91-91c-4-5-9-7-15-7-5 0-10 2-15 7l-251 250c-66-43-139-65-218-65-111 0-206 40-285 119-79 79-119 174-119 286 0 111 40 206 119 285 79 80 174 119 285 119 112 0 207-39 286-119 79-79 119-174 119-285 0-79-22-152-65-219l250-250z m-820 699c-64-64-96-141-96-230 0-90 32-166 96-230 63-64 140-96 230-96 91 0 167 32 231 96 63 64 95 140 95 230 0 89-32 166-95 230-64 63-140 95-231 95-90 0-167-32-230-95 0 0 63 63 0 0l0 0 0 0z" horiz-adv-x="1000" />

<glyph glyph-name="delete" unicode="&#xe80f;" d="M95 573l0-549c0-59 27-99 71-121 14-7 30-12 45-14 10-2 17-2 22-2l330 0c59 0 100 26 122 70 7 15 12 30 15 46 1 9 2 17 2 21l0 549 0 28-29 0-549 0 0-56 549 0-28 28 0-549c0-2 0-6-1-12-2-10-5-20-10-30-12-25-34-39-71-39l-330 0c-2 0-6 1-12 2-11 1-21 4-30 9-25 12-39 34-39 70l0 549-57 0z m135-111l0-438 57 0 0 438-57 0z m140 0l0-438 56 0 0 438-56 0z m139 0l0-438 57 0 0 438-57 0z m251 186l0 63-728 0 0-63 728 0z m-482 63l0 53c0 8 4 12 15 15 9 3 18 4 26 3 0 0 0 0 0 0l2 0 142 0c21 0 33-5 39-13 3-4 5-7 5-8l0 3 0-53 56 0 0 53 0 2 0 1c0 4-1 8-3 14-3 8-8 17-14 24-18 22-45 34-83 34l-142 0 2 0c-1 0-1 0-2 0-13 0-28-1-44-5-33-10-56-33-56-70l0-53 57 0z" horiz-adv-x="762" />

<glyph glyph-name="apple" unicode="&#xe810;" d="M680 318c1-151 133-202 134-202-1-3-21-72-69-142-41-61-85-122-153-123-67-1-88 40-165 40-76 0-101-39-164-41-65-2-115 65-158 126-86 124-151 351-63 505 44 75 122 124 206 125 66 1 127-44 166-44 39 0 113 54 191 46 32-1 124-14 182-100-4-3-109-64-107-190l0 0z m-127 373c36 42 59 101 52 159-50-2-111-33-147-76-32-37-60-97-52-154 56-5 113 28 147 71l0 0z" horiz-adv-x="850" />

<glyph glyph-name="windows" unicode="&#xe811;" d="M17 658l380 52 0-363-380-2 0 313 0 0z m380-354l0-363-380 53 0 314 380-4 0 0z m46 412l502 75 0-439-502-4 0 369 0-1z m502-413l0-435-502 68 0 367 502 0 0 0z" horiz-adv-x="1000" />

<glyph glyph-name="lock-open" unicode="&#xe812;" d="M153 417l-86 0 0 122c0 140 114 255 255 255 141 0 255-115 255-255l0-108 523 0 0-510-696 0 0 510 86 0 0 106c0 93-75 168-168 168-93 0-169-75-169-168l0-120z m561-245c-23 13-38 38-38 66 0 42 34 76 76 76 42 0 76-34 76-76 0-28-16-53-38-66l0-42c0-21-17-38-38-38-21 0-38 17-38 38l0 42z" horiz-adv-x="1200" />

<glyph glyph-name="lock" unicode="&#xe813;" d="M210 430l0 107c0 140 114 254 254 254 140 0 254-114 254-254l0-107 92 0 0-508-692 0 0 508 92 0z m216-258c-22 13-37 38-37 65 0 42 33 76 75 76 42 0 76-34 76-76 0-27-16-52-38-65l0-42c0-21-17-38-38-38-21 0-38 17-38 38l0 42z m206 258l0 105c0 93-75 168-168 168-93 0-168-75-168-168l0-105 336 0z" horiz-adv-x="941" />

<glyph glyph-name="ok" unicode="&#xe814;" d="M401 209l497 498c25 25 67 24 92-1 25-25 25-67 0-92l-395-394-148-149c-9-9-19-14-29-17-20-5-43-1-60 14-1 1-2 2-4 3l-249 250c-26 25-25 67-1 92 26 26 67 26 93 0l204-204z" horiz-adv-x="1077" />

<glyph glyph-name="freedom" unicode="&#xe815;" d="M322 151l-291 112c-4 2-5 2-8 5-2 3-4 5-5 8 0 2-1 3-1 5-1 3 0 6 0 9 1 3 3 6 5 9 2 3 3 3 7 6l996 522 0 0 1 0 2 1 2 0 0 1 1 0 2 0 2 0 0 0 0 0c1 0 2 0 3 0l2 0 0 0 0 0 3-1 2-1 0 0 0 0 2-1 2-1 0 0 0-1 2-1 2-1 0-1 0 0 1-2 2-2 0 0 0 0 1-2 0-2 1-1 0 0 0-2 0-2 0 0 0-1 0-2 0-2 0 0 0-1-152-817c-1-4-1-6-4-9-1-2-2-3-3-4-2-2-5-4-8-5-2 0-4-1-5-1-5 0-6 1-10 2l-285 106-134-209-1 0c-1-2-2-4-3-5-2-2-3-3-5-4-3-1-6-2-9-3-3 0-6 0-9 1-2 1-4 1-5 3-2 1-4 2-5 3-1 2-2 3-3 5-1 1-2 3-2 4l-93 282z m44 11l65-196 32 173c0 2 1 3 1 4 1 4 2 5 4 8l346 422-448-411z m115-175l66 103-44 16-22-119z m43 160l342-127 131 704c-158-193-315-385-473-577l0 0z m-430 141l240-93 320 293 237 217c-265-139-531-278-797-417l0 0z" horiz-adv-x="1083" />

<glyph glyph-name="close" unicode="&#xe816;" d="M505 443l-282 282-98-98 282-282-282-282 98-98 282 282 282-282 98 98-282 282 282 282-98 98-282-282z" horiz-adv-x="1000" />
</font>
</defs>
</svg>
